<?xml version="1.0" encoding="UTF-8"?>
<svg width="35px" height="35px" viewBox="0 0 35 35" version="1.1" xmlns="http://www.w3.org/2000/svg" xmlns:xlink="http://www.w3.org/1999/xlink">
    <!-- Generator: Sketch 50.2 (55047) - http://www.bohemiancoding.com/sketch -->
    <title>icon--admin-login--installningar-meny</title>
    <desc>Created with Sketch.</desc>
    <defs></defs>
    <g id="Page-1" stroke="none" stroke-width="1" fill="none" fill-rule="evenodd" opacity="0.900000036">
        <g id="meny-installningar-campuskollen" transform="translate(-233.000000, -1102.000000)" fill="#FFFFFF">
            <path d="M263.519266,1102 L246.352179,1102 C244.253979,1102 242.57542,1103.7145 242.57542,1105.81 L242.57542,1111.52501 L246.352179,1111.52501 L246.352179,1105.81 L263.519266,1105.81 L263.519266,1132.48002 L246.352179,1132.48002 L246.352179,1128.67002 L242.57542,1128.67002 L242.57542,1132.48002 C242.57542,1134.57552 244.253979,1136.29002 246.352179,1136.29002 L263.519266,1136.29002 C265.617465,1136.29002 267.334174,1134.57552 267.334174,1132.48002 L267.334174,1105.81 C267.334174,1103.7145 265.617465,1102 263.519266,1102 L263.519266,1102 Z M250.167087,1127.52701 L257.796903,1120.09751 L250.167087,1112.66801 L250.167087,1117.24001 L233,1117.24001 L233,1122.95501 L250.167087,1122.95501 L250.167087,1127.52701 L250.167087,1127.52701 Z" id="icon--admin-login--installningar-meny"></path>
        </g>
    </g>
</svg>