<?xml version="1.0" encoding="UTF-8"?>
<svg width="60px" height="60px" viewBox="0 0 60 60" version="1.1" xmlns="http://www.w3.org/2000/svg" xmlns:xlink="http://www.w3.org/1999/xlink">
    <!-- Generator: Sketch 50.2 (55047) - http://www.bohemiancoding.com/sketch -->
    <title>Group 2</title>
    <desc>Created with Sketch.</desc>
    <defs>
        <polygon id="path-1" points="0 0.112711765 41.9206274 0.112711765 41.9206274 47.9999471 0 47.9999471"></polygon>
    </defs>
    <g id="Page-1" stroke="none" stroke-width="1" fill="none" fill-rule="evenodd">
        <g id="Group-2">
            <rect id="App-Icon" fill="#6CBE45" x="0" y="0" width="60" height="60" rx="13.5"></rect>
            <g id="Logo-Copy" transform="translate(9.000000, 7.000000)">
                <g id="Group-3">
                    <mask id="mask-2" fill="white">
                        <use xlink:href="#path-1"></use>
                    </mask>
                    <g id="Clip-2"></g>
                    <path d="M41.9206274,20.0161235 C41.9206274,25.3573588 39.7067071,30.2030647 36.1004681,33.7771235 C36.0694327,33.8110059 36.0359814,33.8425941 36.0006717,33.8741824 L35.3654681,34.4708294 L20.9603973,47.9999471 L6.49957434,34.4224765 L6.00672478,33.9585353 C5.9712292,33.9269471 5.93796372,33.8951824 5.90692832,33.8614765 C2.2473531,30.2810647 -1.85841401e-05,25.3995353 -1.85841401e-05,20.0161235 C-1.85841401e-05,9.02377059 9.38437965,0.112711765 20.9603973,0.112711765 C32.536415,0.112711765 41.9206274,9.02377059 41.9206274,20.0161235" id="Fill-1" fill="#FFFFFF" mask="url(#mask-2)"></path>
                </g>
                <path d="M13.4555973,22.4824511 L13.4555973,26.6186785 C13.4555973,28.0127305 16.5319806,30.6910279 20.7406491,30.6910279 C24.9493175,30.6910279 28.0258842,28.0127305 28.0258842,26.6186785 L28.0258842,22.6383625 L21.2495907,25.5654846 C20.9056518,25.7140052 20.511112,25.7097819 20.1706565,25.5542224 L13.4555973,22.4824511 Z M20.7406491,33.1546392 C18.3000761,33.1546392 15.8868202,32.4359686 13.9454719,31.1309585 C12.0314408,29.8444255 10.8888889,28.1575557 10.8888889,26.6186785 L10.8888889,20.5307431 C10.8888889,20.1080578 11.1147592,19.7147598 11.4872986,19.4889874 C11.8600213,19.263391 12.3266123,19.2369952 12.7244521,19.4187745 L20.7382657,23.0848041 L28.7825132,19.6097044 C29.1794363,19.4386594 29.6401604,19.4717422 30.0059164,19.6987463 C30.3716723,19.9255745 30.5925926,20.3151771 30.5925926,20.7331111 L30.5925926,26.6186785 C30.5925926,28.1575557 29.4498573,29.8444255 27.5358262,31.1309585 C25.594478,32.4359686 23.1812221,33.1546392 20.7406491,33.1546392 Z" id="Fill-4" fill="#6CBE45"></path>
                <path d="M9.45928281,27.2164948 L9.45431277,27.2164948 C9.0984949,27.2137873 8.81207348,26.9289502 8.81483461,26.5800338 L8.86563944,19.9163263 C8.86766427,19.6576625 9.0302029,19.4264354 9.27594365,19.3323923 L20.8992047,14.8887172 C21.2309087,14.7618221 21.6043978,14.9230132 21.7336188,15.2477419 C21.8628398,15.5728316 21.6988286,15.9390765 21.3673087,16.0659716 L10.1510384,20.3540512 L10.1033629,26.5894201 C10.1006017,26.9367119 9.8127077,27.2164948 9.45928281,27.2164948" id="Fill-6" fill="#6CBE45"></path>
                <path d="M10.3703704,26.7216495 C10.3703704,27.2682197 9.9062238,27.7113402 9.33333333,27.7113402 C8.76061548,27.7113402 8.2962963,27.2682197 8.2962963,26.7216495 C8.2962963,26.175244 8.76061548,25.7319588 9.33333333,25.7319588 C9.9062238,25.7319588 10.3703704,26.175244 10.3703704,26.7216495" id="Fill-8" fill="#6CBE45"></path>
                <path d="M9.38070535,24.742268 L8.2962963,31.7427998 C8.2962963,31.7427998 9.35732468,32.6926343 10.3703704,31.7427998 L9.38070535,24.742268 Z" id="Fill-10" fill="#6CBE45"></path>
                <path d="M7.69526362,16.8287614 L21.5047524,22.6730674 L35.3393616,16.8278879 L21.5185221,11.4534882 L7.69526362,16.8287614 Z M21.5043803,25.2371134 C21.3216531,25.2371134 21.139298,25.201128 20.9690379,25.1291572 L3.87827432,17.8960949 C3.40470937,17.6957297 3.10326528,17.2501048 3.11126658,16.7625553 C3.11926787,16.274831 3.43522594,15.8382899 3.91530356,15.6517249 L21.0200229,9.00036798 C21.3391443,8.876166 21.6978999,8.876166 22.0170213,9.00036798 L39.1219267,15.6517249 C39.6020043,15.8382899 39.9179624,16.2750057 39.9257776,16.7629046 C39.9335928,17.2506289 39.6319627,17.6962537 39.1580256,17.8964443 L22.0389783,25.1295066 C21.8689043,25.201128 21.6865493,25.2371134 21.5043803,25.2371134 Z" id="Fill-12" fill="#6CBE45"></path>
            </g>
        </g>
    </g>
</svg>