<?xml version="1.0" encoding="UTF-8"?>
<svg width="24px" height="20px" viewBox="0 0 24 20" version="1.1" xmlns="http://www.w3.org/2000/svg" xmlns:xlink="http://www.w3.org/1999/xlink">
    <!-- Generator: Sketch 50.2 (55047) - http://www.bohemiancoding.com/sketch -->
    <title>icon--arrowright--valj-campus</title>
    <desc>Created with Sketch.</desc>
    <defs></defs>
    <g id="Page-1" stroke="none" stroke-width="1" fill="none" fill-rule="evenodd">
        <g id="välj-campus-expanded" transform="translate(-647.000000, -773.000000)" fill="#4F525A">
            <path d="M670.585694,783.289513 C670.606221,783.258987 670.629905,783.232145 670.644115,783.197408 C670.667799,783.137935 670.679905,783.075303 670.681483,783.012146 C670.68201,783.007935 670.684115,783.004251 670.684115,783.00004 C670.684115,782.99583 670.68201,782.993198 670.68201,782.988988 C670.680431,782.92583 670.668326,782.862146 670.644115,782.802673 C670.630431,782.768989 670.606221,782.74162 670.586221,782.711094 C670.569905,782.68741 670.560431,782.660568 670.539905,782.638989 L670.530431,782.627937 L670.529905,782.627937 L661.592573,773.165343 C661.393626,772.953239 661.059943,772.944291 660.848892,773.143764 C660.63784,773.343763 660.62784,773.676394 660.827839,773.887972 L668.936754,782.473727 L647.526314,782.473727 C647.235262,782.473727 647,782.709515 647,783.00004 C647,783.290565 647.235262,783.526354 647.526314,783.526354 L668.936754,783.526354 L660.827839,792.112635 C660.62784,792.323687 660.63784,792.656843 660.848892,792.856843 C660.95047,792.952632 661.08047,793 661.210469,793 C661.349942,793 661.489415,792.944737 661.592573,792.835264 L670.529905,783.372144 L670.530431,783.371618 L670.539905,783.361618 C670.560431,783.340039 670.569905,783.313197 670.585694,783.289513" id="icon--arrowright--valj-campus"></path>
        </g>
    </g>
</svg>