<?xml version="1.0" encoding="UTF-8"?>
<svg width="48px" height="56px" viewBox="0 0 48 56" version="1.1" xmlns="http://www.w3.org/2000/svg" xmlns:xlink="http://www.w3.org/1999/xlink">
    <!-- Generator: Sketch 50.2 (55047) - http://www.bohemiancoding.com/sketch -->
    <title>icon--bibliotek--karta</title>
    <desc>Created with Sketch.</desc>
    <defs></defs>
    <g id="Page-1" stroke="none" stroke-width="1" fill="none" fill-rule="evenodd">
        <g id="Karta-steg1-campuskollen" transform="translate(-352.000000, -960.000000)" fill="#FF8C00" fill-rule="nonzero">
            <g id="Group-4" transform="translate(308.000000, 960.000000)">
                <g id="icon--bibliotek--karta" transform="translate(42.000000, 0.000000)">
                    <path d="M17.1726154,24.0067692 L17.1726154,44.5932308 C17.1726154,45.5086154 16.5953846,46.3227692 15.7338462,46.6243077 C14.5147692,47.0529231 13.0436923,47.2790769 11.4778462,47.2790769 C6.97415385,47.2790769 2.13015385,45.4310769 2.13015385,41.3732308 L2.13015385,15.0316923 C2.02892308,13.2224615 2.66,10.0261538 5.69046154,8.29661538 C7.09692308,7.49323077 14.4824615,2.744 18.1913846,0.344615385 C18.8526154,-0.084 19.6969231,-0.114153846 20.3904615,0.260615385 C21.084,0.639692308 21.5147692,1.36553846 21.5147692,2.15384615 L21.5147692,5.27261538 C21.5147692,6.46153846 20.5498462,7.42646154 19.3609231,7.42646154 C18.4347692,7.42646154 17.6443077,6.84276923 17.3406154,6.02 C13.9892308,8.17384615 9.05261538,11.3356923 7.82707692,12.0356923 C6.72430769,12.6667692 6.48523077,13.8255385 6.43784615,14.4544615 C6.43784615,15.1609231 6.59076923,15.7166154 6.86646154,16.0203077 C7.63107692,16.8538462 10.1790769,16.3347692 12.9596923,14.6655385 C15.6304615,13.0630769 28.8033846,4.29261538 28.9347692,4.20430769 C29.6003077,3.76276923 30.4489231,3.72184615 31.1446154,4.09876923 C31.8467692,4.47353846 32.284,5.20369231 32.284,5.99846154 L32.284,6.244 C32.284,6.96338462 31.9243077,7.63538462 31.3276923,8.036 C31.3276923,8.036 22.1824615,14.14 21.3726154,14.6590769 C18.2732308,16.6535385 17.1726154,19.1003077 17.1726154,24.0067692 Z M49.5147692,13.6123077 L49.5147692,41.5735385 C49.5147692,42.3123077 49.1335385,43.0015385 48.5067692,43.3956923 C48.5067692,43.3956923 35.9498462,53.1483077 33.4018462,54.6969231 C32.0621538,55.5132308 30.3563077,55.944 28.4716923,55.944 C23.9938462,55.944 19.3609231,53.5209231 19.3609231,49.4695385 L19.3609231,23.3735385 L19.3609231,22.7424615 C19.3609231,22.7338462 19.3673846,22.7252308 19.3673846,22.7144615 C19.4104615,21.1378462 19.7787692,18.8870769 22.7101538,16.7246154 C24.4676923,15.428 34.9353846,8.29015385 35.3790769,7.98861538 C36.0403077,7.54061538 36.8953846,7.49323077 37.5975385,7.86369231 C38.304,8.23630769 38.7455385,8.96861538 38.7455385,9.76769231 L38.7455385,12.8864615 C38.7455385,14.0753846 37.7827692,15.0403077 36.5916923,15.0403077 C35.7021538,15.0403077 34.9375385,14.5018462 34.6101538,13.7307692 C31.2695385,16.016 26.3652308,19.3824615 25.2667692,20.1901538 C23.8796923,21.2153846 23.6944615,21.8916923 23.6707692,22.7596923 C23.6750769,23.4036923 23.8495385,23.8947692 24.2027692,24.2178462 C25.3012308,25.2236923 28.2584615,24.8015385 31.1747692,23.0526154 C33.3329231,21.756 42.6332308,14.5750769 46.032,11.9172308 C46.6846154,11.4132308 47.5633846,11.3206154 48.3043077,11.6803077 C49.0452308,12.04 49.5147692,12.7873846 49.5147692,13.6123077 Z M45.2070769,23.2098462 L34.4378462,31.5646154 L34.4378462,35.8723077 L45.2070769,27.5175385 L45.2070769,23.2098462 Z" id="Shape"></path>
                </g>
            </g>
        </g>
    </g>
</svg>