<?xml version="1.0" encoding="UTF-8"?>
<svg width="42px" height="32px" viewBox="0 0 42 32" version="1.1" xmlns="http://www.w3.org/2000/svg" xmlns:xlink="http://www.w3.org/1999/xlink">
    <!-- Generator: Sketch 50.2 (55047) - http://www.bohemiancoding.com/sketch -->
    <title>icon--byt-campus--installningar-meny</title>
    <desc>Created with Sketch.</desc>
    <defs></defs>
    <g id="Page-1" stroke="none" stroke-width="1" fill="none" fill-rule="evenodd" opacity="0.900000036">
        <g id="meny-installningar-campuskollen" transform="translate(-234.000000, -814.000000)" fill="#FFFFFF">
            <path d="M240.9158,834.581931 C241.887211,838.512777 243.122104,840.230117 247.245257,842.030709 C251.368409,843.831302 253.327148,845.795051 254.944489,845.795051 C256.561831,845.795051 258.39574,844.074783 262.519311,842.274191 C266.642883,840.473599 265.542873,839.925975 266.514283,835.995128 L254.944489,841.611519 L240.9158,834.581931 L240.9158,834.581931 Z M274.864893,824.325166 L257.428518,814.572935 C256.062093,813.809022 253.826886,813.809022 252.460879,814.572935 L235.024505,824.325166 C233.658498,825.089079 233.658498,826.339118 235.024505,827.103449 L252.460879,836.854425 C253.827305,837.618757 256.062512,837.618757 257.428518,836.854425 L268.700061,830.551098 L256.477215,827.691654 C256.005543,827.808374 255.487792,827.873638 254.944489,827.873638 C252.742794,827.873638 250.957476,826.813112 250.957476,825.504922 C250.957476,824.196731 252.742794,823.135788 254.944489,823.135788 C256.653987,823.135788 258.107961,823.776705 258.674303,824.674491 L271.620575,828.917847 L274.864474,827.103449 C276.230899,826.339536 276.230899,825.089079 274.864893,824.325166 L274.864893,824.325166 Z M269.53575,842.806336 C269.402543,843.610829 272.22378,844.932825 272.492708,842.579589 C273.704562,831.971407 271.620994,828.917847 271.620994,828.917847 L268.700061,830.551098 C268.700061,830.551098 271.17655,832.905171 269.53575,842.806336 L269.53575,842.806336 Z" id="icon--byt-campus--installningar-meny"></path>
        </g>
    </g>
</svg>