<?xml version="1.0" encoding="UTF-8"?>
<svg width="52px" height="52px" viewBox="0 0 52 52" version="1.1" xmlns="http://www.w3.org/2000/svg" xmlns:xlink="http://www.w3.org/1999/xlink">
    <!-- Generator: Sketch 50.2 (55047) - http://www.bohemiancoding.com/sketch -->
    <title>icon--cafe--karta</title>
    <desc>Created with Sketch.</desc>
    <defs></defs>
    <g id="Page-1" stroke="none" stroke-width="1" fill="none" fill-rule="evenodd">
        <g id="Karta-steg1-campuskollen" transform="translate(-131.000000, -1123.000000)" fill="#844BA6" fill-rule="nonzero">
            <g id="Cafe-&amp;-restaurang" transform="translate(57.000000, 1123.000000)">
                <g id="icon--cafe--karta" transform="translate(74.000000, 0.000000)">
                    <path d="M15.9932622,32.4912958 C15.7756867,32.5099492 15.558634,32.5195424 15.3410585,32.5195424 C14.7458364,32.5195424 14.1669246,32.4314985 13.6000364,32.2977272 L0.482879576,45.6709125 C-0.160959859,46.3263385 -0.160959859,47.3909661 0.482879576,48.0464987 L3.87772635,51.5083505 C4.52156578,52.1638832 5.5646944,52.1638832 6.20675643,51.5083505 L21.971831,35.4390608 L19.0501926,32.2253521 L15.9932622,32.4912958 Z" id="XMLID_98_"></path>
                    <path d="M51.5287616,11.019895 C50.9021288,10.3935787 49.8880011,10.3935787 49.2614748,11.019895 L40.6087701,19.6724261 C39.7900395,20.490309 38.4638725,20.490309 37.6451419,19.6724261 C36.8300297,18.8551817 36.8300297,17.530073 37.6451419,16.7130414 L46.2550635,8.10489001 C46.9055356,7.45377644 46.9055356,6.39824449 46.2550635,5.74564095 C45.6015051,5.09537879 44.5464037,5.09537879 43.8959316,5.74564095 L35.289522,14.352941 C34.4707913,15.1716753 33.1461143,15.1716753 32.3273837,14.352941 C31.5103559,13.5360159 31.5103559,12.2099493 32.3273837,11.3936628 L40.9782791,2.74198315 C41.6066147,2.11470898 41.6066147,1.09866104 40.9782791,0.470535452 C40.3516463,-0.156845151 39.3357094,-0.156845151 38.7073738,0.470535452 L28.9739192,10.2045663 C26.633731,12.5462551 25.8945001,15.8332186 26.6521426,18.8241053 L33.1770841,25.3495021 C36.1677444,26.104381 39.4562894,25.3648275 41.793817,23.0250544 L51.5286552,13.2915556 C52.1570972,12.6642814 52.1570972,11.6471692 51.5287616,11.019895 Z" id="XMLID_97_"></path>
                    <path d="M4.34599149,1.25298982 C4.01453645,0.916758517 3.56632125,0.732394366 3.10604929,0.732394366 C3.00811458,0.732394366 2.90965107,0.740867181 2.81351431,0.757169304 C2.2535097,0.853266035 1.77303739,1.21781156 1.52619117,1.736691 C-1.30714656,7.67549038 -0.123046181,14.7817149 4.47628907,19.4460528 L12.7046022,27.789201 C13.5164238,28.6134235 14.6141174,29.0696685 15.752529,29.0696685 C15.87426,29.0696685 15.9963082,29.0645204 16.1180391,29.0543316 L20.8953702,28.6408797 L41.7272241,51.4304982 C42.0506413,51.7847476 42.5037215,51.9904547 42.981021,52 C42.9908567,52 43.0011156,52 43.0114801,52 C43.4780978,52 43.9248323,51.8130618 44.2563931,51.4792973 L47.8241354,47.8605475 C48.1537925,47.5269975 48.3380282,47.0742918 48.3380282,46.6024955 C48.3380282,46.1308064 48.1537925,45.677779 47.8255103,45.3442289 L4.34599149,1.25298982 Z" id="XMLID_96_"></path>
                </g>
            </g>
        </g>
    </g>
</svg>