<?xml version="1.0" encoding="UTF-8"?>
<svg width="48px" height="48px" viewBox="0 0 48 48" version="1.1" xmlns="http://www.w3.org/2000/svg" xmlns:xlink="http://www.w3.org/1999/xlink">
    <!-- Generator: Sketch 50.2 (55047) - http://www.bohemiancoding.com/sketch -->
    <title>icon--kryss</title>
    <desc>Created with Sketch.</desc>
    <defs></defs>
    <g id="Page-1" stroke="none" stroke-width="1" fill="none" fill-rule="evenodd">
        <g id="felanmälan-steg1-campuskollen" transform="translate(-654.000000, -179.000000)" fill="#fff">
            <path d="M707.96912,205.542834 L680.540548,205.542834 L680.540548,232.971405 C680.540548,234.235405 679.516548,235.254834 678.254834,235.254834 C676.990834,235.254834 675.96912,234.235405 675.96912,232.971405 L675.96912,205.542834 L648.538263,205.542834 C647.276548,205.542834 646.254834,204.52112 646.254834,203.254834 C646.254834,201.99312 647.276548,200.96912 648.538263,200.96912 L675.96912,200.96912 L675.96912,173.540548 C675.96912,172.276548 676.990834,171.254834 678.254834,171.254834 C679.516548,171.254834 680.540548,172.276548 680.540548,173.540548 L680.540548,200.96912 L707.96912,200.96912 C709.230834,200.96912 710.254834,201.99312 710.254834,203.254834 C710.254834,204.52112 709.230834,205.542834 707.96912,205.542834" id="icon--kryss" transform="translate(678.254834, 203.254834) rotate(-315.000000) translate(-678.254834, -203.254834) "></path>
        </g>
    </g>
</svg>
