<?xml version="1.0" encoding="UTF-8"?>
<svg width="82px" height="52px" viewBox="0 0 82 52" version="1.1" xmlns="http://www.w3.org/2000/svg" xmlns:xlink="http://www.w3.org/1999/xlink">
    <!-- Generator: Sketch 50.2 (55047) - http://www.bohemiancoding.com/sketch -->
    <title>icon--styr-och-stall--karta</title>
    <desc>Created with Sketch.</desc>
    <defs></defs>
    <g id="Page-1" stroke="none" stroke-width="1" fill="none" fill-rule="evenodd">
        <g id="Karta-steg1-campuskollen" transform="translate(-550.000000, -1124.000000)" fill="#6CBE45" fill-rule="nonzero">
            <g id="Styr-&amp;-ställ" transform="translate(545.000000, 1124.000000)">
                <path d="M86.5308642,36.608642 C86.4024691,26.0802469 76.8209877,19.6925926 68.0580247,21.5222222 L65.5864198,14.8135802 L65.5864198,6.11481481 C65.5864198,2.74444444 62.8419753,0 59.4716049,0 L55.2185185,0 C53.9666667,0 52.9555556,1.01111111 52.9555556,2.26296296 C52.9555556,3.51481481 53.9666667,4.52592593 55.2185185,4.52592593 L59.4716049,4.52592593 C60.354321,4.52592593 61.0604938,5.24814815 61.0604938,6.11481481 L61.0604938,12.8555556 L37.6123457,12.8555556 L37.6123457,10.8975309 L40.8382716,10.8975309 C42.0901235,10.8975309 43.1012346,9.88641975 43.1012346,8.6345679 C43.1012346,7.38271605 42.0901235,6.37160494 40.8382716,6.37160494 L29.8444444,6.37160494 C28.5925926,6.37160494 27.5814815,7.38271605 27.5814815,8.6345679 C27.5814815,9.88641975 28.5925926,10.8975309 29.8444444,10.8975309 L33.0864198,10.8975309 L33.0864198,14.4283951 L27.3728395,22.9024691 C17.5987654,17.9271605 5.24074074,24.4753086 5,36.608642 C5,45.0987654 11.9012346,52 20.391358,52 C27.8864198,52 34.1296296,46.6234568 35.5098765,39.5296296 L41.1592593,39.5296296 C41.7530864,39.5296296 42.3308642,39.2888889 42.7641975,38.8716049 L62.408642,19.2271605 L63.8049383,23.062963 C59.0061728,25.6790123 55.7320988,30.7666667 55.7320988,36.608642 C55.7320988,45.0987654 62.6333333,52 71.1395062,52 C79.6296296,52 86.6432099,45.0987654 86.5308642,36.608642 Z M20.391358,47.4740741 C14.4049383,47.4740741 9.52592593,42.5950617 9.52592593,36.608642 C9.52592593,29.5308642 16.6037037,23.3839506 24.8049383,26.6901235 L18.5135802,36.0148148 C18.0481481,36.7049383 18,37.6037037 18.3851852,38.3419753 C18.7703704,39.0802469 19.5407407,39.545679 20.391358,39.545679 L30.8555556,39.545679 C29.5716049,44.1197531 25.382716,47.4740741 20.391358,47.4740741 Z M24.6604938,35.0037037 L28.4802469,29.354321 C29.8765432,30.9111111 30.8234568,32.8530864 31.1444444,35.0037037 L24.6604938,35.0037037 Z M40.2283951,35.0037037 L35.7185185,35.0037037 C35.3333333,31.2962963 33.6160494,27.9740741 31.0641975,25.5185185 L36.5691358,17.3654321 L57.8666667,17.3654321 L40.2283951,35.0037037 Z M71.1234568,47.4740741 C65.137037,47.4740741 60.2580247,42.5950617 60.2580247,36.608642 C60.2580247,32.7246914 62.3123457,29.3222222 65.3777778,27.3962963 L69.0049383,37.3790123 C69.3740741,38.3740741 70.5296296,39.208642 71.9098765,38.7271605 C73.0814815,38.2938272 73.691358,36.9938272 73.2580247,35.8222222 L69.6308642,25.8395062 C76.2271605,24.8925926 82.0049383,30.108642 82.0049383,36.5925926 C82.0049383,42.6111111 77.1259259,47.4740741 71.1234568,47.4740741 Z" id="icon--styr-och-stall--karta"></path>
            </g>
        </g>
    </g>
</svg>