<?xml version="1.0" encoding="UTF-8"?>
<svg width="29px" height="19px" viewBox="0 0 29 19" version="1.1" xmlns="http://www.w3.org/2000/svg" xmlns:xlink="http://www.w3.org/1999/xlink">
    <!-- Generator: Sketch 50.2 (55047) - http://www.bohemiancoding.com/sketch -->
    <title>icon--email--felanmalan-steg2</title>
    <desc>Created with Sketch.</desc>
    <defs></defs>
    <g id="Page-1" stroke="none" stroke-width="1" fill="none" fill-rule="evenodd">
        <g id="felanmälan-steg2-campuskollen" transform="translate(-50.000000, -1043.000000)" fill="#fff">
            <g id="E-mail" transform="translate(48.000000, 1030.000000)">
                <g id="Mail" transform="translate(2.000000, 13.000000)">
                    <path d="M0.993402099,1.85184038 C1.76028841,2.26349992 12.3791976,7.96021526 12.7744221,8.17232033 C13.1699608,8.38442539 13.6820561,8.48671274 14.1979215,8.48671274 C14.7137868,8.48671274 15.2258821,8.38442539 15.6214208,8.17232033 C16.0166453,7.96021526 26.6355545,2.26349992 27.4024408,1.85184038 C28.1696413,1.44049461 28.8959998,0.148724558 27.4863239,0.148724558 L0.909518999,0.148724558 C-0.499214401,0.148724558 0.225887447,1.44049461 0.993402099,1.85184038 L0.993402099,1.85184038 Z M27.7272915,4.98948928 C26.8561011,5.44350708 16.1548796,11.0322873 15.6214208,11.3099692 C15.0876478,11.5882787 14.7137868,11.6243616 14.1979215,11.6243616 C13.6820561,11.6243616 13.3081951,11.5882787 12.7744221,11.3099692 C12.2409633,11.0322873 1.54037017,5.44350708 0.668551444,4.98948928 C0.0552937284,4.67007662 0.060320431,5.0447119 0.060320431,5.33400313 L0.060320431,16.8425855 C0.060320431,17.5002367 0.937480032,18.3470882 1.61828406,18.3470882 L26.7775588,18.3470882 C27.4583629,18.3470882 28.3355225,17.5002367 28.3355225,16.8425855 L28.3355225,5.33400313 C28.3355225,5.0447119 28.3411775,4.67007662 27.7272915,4.98948928 L27.7272915,4.98948928 Z" id="icon--email--felanmalan-steg2"></path>
                </g>
            </g>
        </g>
    </g>
</svg>
