<svg width="48" height="48" xmlns="http://www.w3.org/2000/svg"><g fill="#FFF"><path d="M1.317 40.318a4.492 4.492 0 0 0 3.179 7.67 4.48 4.48 0 0 0 3.179-1.315l14.756-14.76-6.358-6.351L1.317 40.318zm36.881-27.349l6.427-3.323 3.364-6.505L44.852.004l-6.501 3.368-3.33 6.42-7.817 7.827 3.17 3.176z"/><path d="M39.606 30.026l-.605-.06c-1.097 0-2.137.225-3.107.585L17.446 12.1c.36-.971.584-2.01.584-3.107l-.06-.606C17.652 3.71 13.8.004 9.04.004a8.883 8.883 0 0 0-3.853.899l5.971 5.971c.315.315.53.686.675 1.079a2.991 2.991 0 0 1-.675 3.158 2.988 2.988 0 0 1-2.118.878A2.97 2.97 0 0 1 8 11.785a2.98 2.98 0 0 1-1.078-.677L.95 5.139C.391 6.311.052 7.61.052 8.993c0 4.758 3.707 8.61 8.384 8.928l.605.06c1.097 0 2.137-.224 3.107-.581l18.445 18.448c-.353.97-.578 2.01-.578 3.107l.063.605c.312 4.68 4.168 8.384 8.926 8.384a8.8 8.8 0 0 0 3.853-.899l-5.972-5.971a3.06 3.06 0 0 1-.68-1.076 2.987 2.987 0 0 1 2.799-4.039c.353 0 .7.075 1.042.204a2.87 2.87 0 0 1 1.076.674l5.972 5.971a8.863 8.863 0 0 0 .898-3.853c-.003-4.758-3.709-8.611-8.386-8.929z"/></g></svg>