<?xml version="1.0" encoding="UTF-8"?>
<svg width="50px" height="50px" viewBox="0 0 50 50" version="1.1" xmlns="http://www.w3.org/2000/svg" xmlns:xlink="http://www.w3.org/1999/xlink">
    <!-- Generator: Sketch 50.2 (55047) - http://www.bohemiancoding.com/sketch -->
    <title>icon--helskarm--felanmalan-steg1</title>
    <desc>Created with Sketch.</desc>
    <defs></defs>
    <g id="Page-1" stroke="none" stroke-width="1" fill="none" fill-rule="evenodd">
        <g id="felanmälan-steg1-campuskollen" transform="translate(-652.000000, -447.000000)" fill="#6CBE45" stroke="#6CBE45">
            <path d="M699.909091,462.181818 C700.511273,462.181818 701,461.694182 701,461.090909 L701,449.090909 C701,448.949091 700.970545,448.807273 700.916,448.674182 C700.804727,448.406909 700.592,448.195273 700.325818,448.084 C700.191636,448.028364 700.050909,448 699.909091,448 L687.909091,448 C687.305818,448 686.818182,448.487636 686.818182,449.090909 C686.818182,449.694182 687.305818,450.181818 687.909091,450.181818 L697.275636,450.181818 L677,470.457455 L656.724364,450.181818 L666.090909,450.181818 C666.693091,450.181818 667.181818,449.694182 667.181818,449.090909 C667.181818,448.487636 666.693091,448 666.090909,448 L654.090909,448 C653.487636,448 653,448.487636 653,449.090909 L653,461.090909 C653,461.694182 653.487636,462.181818 654.090909,462.181818 C654.693091,462.181818 655.181818,461.694182 655.181818,461.090909 L655.181818,451.724364 L675.457455,472 L655.181818,492.275636 L655.181818,482.909091 C655.181818,482.305818 654.693091,481.818182 654.090909,481.818182 C653.487636,481.818182 653,482.305818 653,482.909091 L653,494.909091 C653,495.512364 653.487636,496 654.090909,496 L666.090909,496 C666.693091,496 667.181818,495.512364 667.181818,494.909091 C667.181818,494.305818 666.693091,493.818182 666.090909,493.818182 L656.724364,493.818182 L677,473.542545 L697.275636,493.818182 L687.909091,493.818182 C687.305818,493.818182 686.818182,494.305818 686.818182,494.909091 C686.818182,495.512364 687.305818,496 687.909091,496 L699.909091,496 C700.050909,496 700.191636,495.971636 700.325818,495.916 C700.592,495.804727 700.804727,495.593091 700.916,495.325818 C700.970545,495.192727 701,495.050909 701,494.909091 L701,482.909091 C701,482.305818 700.511273,481.818182 699.909091,481.818182 C699.305818,481.818182 698.818182,482.305818 698.818182,482.909091 L698.818182,492.275636 L678.542545,472 L698.818182,451.724364 L698.818182,461.090909 C698.818182,461.694182 699.305818,462.181818 699.909091,462.181818" id="icon--helskarm--felanmalan-steg1"></path>
        </g>
    </g>
</svg>