<?xml version="1.0" encoding="UTF-8"?>
<svg width="19px" height="40px" viewBox="0 0 19 40" version="1.1" xmlns="http://www.w3.org/2000/svg" xmlns:xlink="http://www.w3.org/1999/xlink">
    <!-- Generator: Sketch 50.2 (55047) - http://www.bohemiancoding.com/sketch -->
    <title>icon--hjalp--installningar-meny</title>
    <desc>Created with Sketch.</desc>
    <defs></defs>
    <g id="Page-1" stroke="none" stroke-width="1" fill="none" fill-rule="evenodd" opacity="0.900000036">
        <g id="meny-installningar-campuskollen" transform="translate(-245.000000, -1002.000000)" fill="#FFFFFF">
            <path d="M258.906683,1002 C261.554897,1002 262.878609,1003.80389 262.878609,1005.86649 C262.878609,1008.44257 260.579219,1010.82551 257.582576,1010.82551 C255.073575,1010.82551 253.60986,1009.34353 253.679466,1006.89661 C253.679466,1004.83401 255.421608,1002 258.906683,1002 L258.906683,1002 Z M250.752035,1041.49833 C248.661069,1041.49833 247.127747,1040.2099 248.591462,1034.5407 L250.992098,1024.48561 C251.410133,1022.87526 251.478554,1022.23144 250.992098,1022.23144 C250.364057,1022.23144 247.649796,1023.34371 246.044494,1024.4394 L245,1022.69989 C250.087213,1018.3843 255.940098,1015.85325 258.448308,1015.85325 C260.538483,1015.85325 260.887702,1018.36574 259.842417,1022.23144 L257.094144,1032.8012 C256.606107,1034.66907 256.816113,1035.31289 257.302568,1035.31289 C257.929818,1035.31289 259.986772,1034.53754 262.00734,1032.9268 L263.192234,1034.53754 C258.24463,1039.56252 252.843001,1041.49833 250.752035,1041.49833 L250.752035,1041.49833 Z" id="icon--hjalp--installningar-meny"></path>
        </g>
    </g>
</svg>