<?xml version="1.0" encoding="UTF-8"?>
<svg width="40px" height="40px" viewBox="0 0 40 40" version="1.1" xmlns="http://www.w3.org/2000/svg" xmlns:xlink="http://www.w3.org/1999/xlink">
    <!-- Generator: Sketch 50.2 (55047) - http://www.bohemiancoding.com/sketch -->
    <title>icon-sok</title>
    <desc>Created with Sketch.</desc>
    <defs></defs>
    <g id="Page-1" stroke="none" stroke-width="1" fill="none" fill-rule="evenodd">
        <g id="välj-campus" transform="translate(-638.000000, -332.000000)" fill="#4F525A">
            <path d="M667.321259,356.068528 C668.753869,353.718555 669.578248,350.959432 669.578248,348.00703 C669.578248,339.430957 662.13722,332 653.548596,332 C644.961983,332 638,338.95303 638,347.529605 C638,356.10618 645.441028,363.536635 654.027641,363.536635 C656.882808,363.536635 659.557014,362.764522 661.856228,361.423114 L671.404952,370.960061 C672.339416,371.893323 673.854464,371.893323 674.787923,370.960061 L677.157008,368.595529 C678.092477,367.661764 677.753677,366.487029 676.819213,365.553766 L667.321259,356.068528 Z M642.785924,347.529605 C642.785924,341.591667 647.605526,336.778263 653.549099,336.778263 C659.495688,336.778263 664.79333,342.069092 664.79333,348.00703 C664.79333,353.944967 659.973728,358.758372 654.028144,358.758372 C648.083565,358.758372 642.785924,353.467543 642.785924,347.529605 L642.785924,347.529605 Z" id="icon-sok"></path>
        </g>
    </g>
</svg>