<?xml version="1.0" encoding="UTF-8"?>
<svg width="48px" height="48px" viewBox="0 0 48 48" version="1.1" xmlns="http://www.w3.org/2000/svg" xmlns:xlink="http://www.w3.org/1999/xlink">
    <!-- Generator: Sketch 50.2 (55047) - http://www.bohemiancoding.com/sketch -->
    <title>icon--felanmalan--nav-bot</title>
    <desc>Created with Sketch.</desc>
    <defs></defs>
    <g id="Page-1" stroke="none" stroke-width="1" fill="none" fill-rule="evenodd">
        <g id="nyheter-frågor-campuskollen" transform="translate(-351.000000, -1404.000000)" fill="#FFFFFF" fill-rule="nonzero">
            <g id="icon--felanmalan--nav-bot" transform="translate(351.000000, 1404.000000)">
                <path d="M1.31689528,40.3183244 C-0.438899384,42.0741191 -0.438899384,44.9175524 1.31689528,46.673347 C2.19479261,47.5512444 3.34531417,47.9886653 4.49593429,47.9886653 C5.64655441,47.9886653 6.79707598,47.5512444 7.67497331,46.673347 L22.4314743,31.9137906 L16.0733963,25.5617248 L1.31689528,40.3183244 Z" id="Shape"></path>
                <polygon id="Shape" points="38.1977495 12.9685749 44.6247228 9.6456345 47.9894538 3.14079671 44.8524025 0.00374537988 38.3505216 3.37153183 35.0216674 9.79249281 27.2044682 17.6186612 30.374538 20.7947433"></polygon>
                <path d="M39.6059138,30.0262177 L39.0006407,29.9662916 C37.9040329,29.9662916 36.8642957,30.1910144 35.8935524,30.5505708 L17.4455852,12.0996468 C17.8051417,11.1289035 18.0298645,10.0891663 18.0298645,8.99255852 L17.9699384,8.38728542 C17.6523696,3.71009446 13.7991622,0.00374537988 9.0411499,0.00374537988 C7.65683778,0.00374537988 6.35945791,0.342308008 5.18794251,0.90263655 L11.1594579,6.87415195 C11.4740698,7.18876386 11.6898234,7.56024641 11.8336263,7.95282136 C12.2261027,9.0134538 12.0134045,10.253963 11.1594579,11.1108665 C10.5751786,11.6951458 9.80816427,11.9887639 9.0411499,11.9887639 C8.68760575,11.9887639 8.33701848,11.9108994 8.00141273,11.7850349 C7.60893634,11.6352197 7.23735524,11.4254784 6.92274333,11.1079097 L0.951326489,5.13935113 C0.390997947,6.31086653 0.0524353183,7.60824641 0.0524353183,8.99255852 C0.0524353183,13.7505708 3.75878439,17.6037782 8.43597536,17.921347 L9.04124846,17.9812731 C10.1378563,17.9812731 11.1775934,17.7565503 12.1483368,17.4000493 L30.5932485,35.8480164 C30.2397043,36.8187598 30.0149815,37.8584969 30.0149815,38.9551047 L30.0778645,39.5603778 C30.3895195,44.2405257 34.2456838,47.9439179 39.0036961,47.9439179 C40.3880082,47.9439179 41.688345,47.6113676 42.8569035,47.0450267 L36.8853881,41.0735113 C36.5737331,40.7618563 36.3550226,40.3874168 36.2052074,39.9978973 C35.812731,38.9372649 36.0254292,37.6937988 36.8853881,36.8368953 C37.463655,36.252616 38.2366817,35.9589979 39.0036961,35.9589979 C39.3572402,35.9589979 39.7047721,36.0339055 40.0463901,36.1627269 C40.4388665,36.3095852 40.8134045,36.5193265 41.1220041,36.8368953 L47.0935195,42.8084107 C47.6568049,41.6338398 47.9924107,40.3395154 47.9924107,38.9552033 C47.9894538,34.1969938 44.2831047,30.3437864 39.6059138,30.0262177 Z" id="Shape"></path>
            </g>
        </g>
    </g>
</svg>