<?xml version="1.0" encoding="UTF-8"?>
<svg width="56px" height="56px" viewBox="0 0 56 56" version="1.1" xmlns="http://www.w3.org/2000/svg" xmlns:xlink="http://www.w3.org/1999/xlink">
    <!-- Generator: Sketch 50.2 (55047) - http://www.bohemiancoding.com/sketch -->
    <title>icon--motesplats--karta</title>
    <desc>Created with Sketch.</desc>
    <defs></defs>
    <g id="Page-1" stroke="none" stroke-width="1" fill="none" fill-rule="evenodd">
        <g id="Karta-steg1-campuskollen" transform="translate(-130.000000, -961.000000)" fill="#FF008E" fill-rule="nonzero">
            <g id="Group-5" transform="translate(73.000000, 961.000000)">
                <g id="icon--motesplats--karta" transform="translate(57.000000, 0.000000)">
                    <path d="M8.11391304,14.2118261 L5.38573913,16.94 C5.02782609,17.2991304 4.92069565,17.8566957 5.11304348,18.3253913 C5.3066087,18.794087 5.76434783,19.1191304 6.272,19.1191304 L17.7848696,19.1191304 C18.4763478,19.1191304 19.0436522,18.5201739 19.0436522,17.8274783 L19.0436522,6.3133913 C19.0436522,5.80573913 18.7344348,5.34921739 18.2657391,5.15443478 C17.7982609,4.96086957 17.2577391,5.068 16.8986087,5.42591304 L14.1692174,8.15530435 L6.93913043,0.925217391 C5.76069565,-0.253217391 3.8506087,-0.253217391 2.67217391,0.925217391 L0.883826087,2.71356522 C0.31773913,3.27965217 0,4.04782609 0,4.84643478 C0,5.64626087 0.31773913,6.41443478 0.883826087,6.98052174 L8.11391304,14.2118261 Z" id="Shape"></path>
                    <path d="M17.786087,36.6434783 L6.272,36.6434783 C5.76313043,36.6434783 5.3066087,36.9271304 5.11304348,37.3970435 C4.92069565,37.8645217 5.02782609,38.3928696 5.38452174,38.752 L8.11391304,41.4753043 L0.882608696,48.7041739 C0.31773913,49.2702609 0,50.036 0,50.8358261 C0,51.6344348 0.31773913,52.4013913 0.882608696,52.9686957 L2.6733913,54.7570435 C3.85182609,55.9354783 5.76191304,55.9354783 6.93913043,54.7570435 L14.1692174,47.5269565 L16.8973913,50.2563478 C17.2589565,50.6142609 17.7994783,50.7213913 18.2669565,50.5278261 C18.7356522,50.3342609 19.0448696,49.8777391 19.0448696,49.3713043 L19.0448696,37.8572174 C19.0448696,37.1633043 18.4775652,36.6434783 17.786087,36.6434783 Z" id="Shape"></path>
                    <path d="M47.5683478,41.4704348 L50.2977391,38.7410435 C50.6544348,38.381913 50.7615652,37.8633043 50.568,37.3970435 C50.3756522,36.9283478 49.9191304,36.6446957 49.4102609,36.6446957 L37.8973913,36.6446957 C37.2071304,36.6446957 36.6398261,37.1645217 36.6398261,37.8572174 L36.6398261,49.3713043 C36.6398261,49.8789565 36.9478261,50.3354783 37.4165217,50.5302609 C37.8852174,50.7226087 38.4269565,50.6154783 38.7836522,50.2563478 L41.5130435,47.5269565 L48.7443478,54.7582609 C49.9215652,55.9366957 51.8316522,55.9366957 53.010087,54.7582609 L54.7996522,52.9686957 C55.3681739,52.4013913 55.6846957,51.6344348 55.6846957,50.8358261 C55.6846957,50.0347826 55.3681739,49.2678261 54.7996522,48.7029565 L47.5683478,41.4704348 Z" id="Shape"></path>
                    <path d="M37.8973913,19.117913 L49.4102609,19.117913 C49.9191304,19.117913 50.3756522,18.7928696 50.568,18.3241739 C50.7615652,17.8554783 50.6544348,17.3076522 50.2977391,16.9485217 L47.5683478,14.2142609 L54.7972174,6.98052174 C55.3645217,6.41565217 55.6834783,5.64626087 55.6834783,4.84643478 C55.6834783,4.0466087 55.3645217,3.27843478 54.7972174,2.71356522 L53.0076522,0.924 C51.8304348,-0.254434783 49.9191304,-0.254434783 48.7431304,0.924 L41.5130435,8.15408696 L38.786087,5.42469565 C38.4269565,5.06678261 37.8852174,4.95965217 37.4165217,5.15321739 C36.9478261,5.34678261 36.6398261,5.80452174 36.6398261,6.31095652 L36.6398261,17.8250435 C36.6398261,18.5177391 37.205913,19.117913 37.8973913,19.117913 Z" id="Shape"></path>
                    <circle id="Oval" cx="27.8417391" cy="27.8405217" r="8.96"></circle>
                </g>
            </g>
        </g>
    </g>
</svg>