<?xml version="1.0" encoding="UTF-8"?>
<svg width="28px" height="27px" viewBox="0 0 28 27" version="1.1" xmlns="http://www.w3.org/2000/svg" xmlns:xlink="http://www.w3.org/1999/xlink">
    <!-- Generator: Sketch 50.2 (55047) - http://www.bohemiancoding.com/sketch -->
    <title>icon--namn--felanmalan-steg2</title>
    <desc>Created with Sketch.</desc>
    <defs></defs>
    <g id="Page-1" stroke="none" stroke-width="1" fill="none" fill-rule="evenodd">
        <g id="felanmälan-steg2-campuskollen" transform="translate(-51.000000, -751.000000)" fill="#4F525A">
            <g id="Namn" transform="translate(48.000000, 742.000000)">
                <g id="User" transform="translate(3.000000, 9.000000)">
                    <path d="M16.8683153,15.0283342 C16.8683153,13.6018753 17.9720116,14.0677953 18.4564182,11.455598 C18.6575701,10.3720632 19.6322477,11.4380271 19.8187384,8.96434658 C19.8187384,7.97832995 19.2868295,7.73350967 19.2868295,7.73350967 C19.2868295,7.73350967 19.5571823,6.27454476 19.6630363,5.15176848 C19.7941076,3.75283726 18.8537372,0.13851674 13.8375488,0.13851674 C8.82136037,0.13851674 7.88040353,3.75283726 8.01206125,5.15176848 C8.11791523,6.27454476 8.38826805,7.73350967 8.38826805,7.73350967 C8.38826805,7.73350967 7.85635914,7.97832995 7.85635914,8.96434658 C8.04255658,11.4380271 9.01723421,10.3720632 9.21838609,11.455598 C9.70337912,14.0675024 10.806489,13.6018753 10.806489,15.0283342 C10.806489,17.4042038 9.65177164,18.5138019 6.0374887,19.8295645 C2.41177001,21.1491342 0.056299069,22.4944743 0.056299069,23.4119647 L0.056299069,26.4947675 L13.837842,26.4947675 L27.6193849,26.4947675 L27.6193849,23.4119647 C27.6190917,22.4944743 25.2636207,21.1491342 21.6379021,19.8295645 C18.0236191,18.5138019 16.8683153,17.4042038 16.8683153,15.0283342 Z" id="icon--namn--felanmalan-steg2"></path>
                </g>
            </g>
        </g>
    </g>
</svg>