<?xml version="1.0" encoding="UTF-8"?>
<svg width="34px" height="37px" viewBox="0 0 34 37" version="1.1" xmlns="http://www.w3.org/2000/svg" xmlns:xlink="http://www.w3.org/1999/xlink">
    <!-- Generator: Sketch 50.2 (55047) - http://www.bohemiancoding.com/sketch -->
    <title>icon--notiser--installningar-meny</title>
    <desc>Created with Sketch.</desc>
    <defs></defs>
    <g id="Page-1" stroke="none" stroke-width="1" fill="none" fill-rule="evenodd" opacity="0.900000036">
        <g id="meny-installningar-campuskollen" transform="translate(-238.000000, -907.000000)" fill="#FFFFFF">
            <path d="M271.34622,929.487733 L268.091933,926.591181 C267.149426,925.752299 267.149803,924.379892 268.09231,923.541386 L271.34622,920.645587 C272.288727,919.806329 272.037266,919.024301 270.787879,918.904945 L266.471952,918.4968 C265.222565,918.378573 264.55037,917.305497 264.980153,916.112689 L267.270067,909.744642 C267.699473,908.551457 267.173931,908.116202 266.10249,908.77925 L261.011445,911.923551 C259.940004,912.585469 258.556404,912.223636 257.936988,911.118932 L256.092691,907.832308 C255.472522,906.727604 254.448959,906.721957 253.817103,907.81913 L252.103249,910.794374 C251.471769,911.891547 250.019178,912.360312 248.875729,911.835822 L245.860838,910.452872 C244.717389,909.928383 243.837842,910.536459 243.905702,911.804195 L244.069321,914.84533 C244.137559,916.113065 243.20033,917.418453 241.987889,917.744141 L239.076298,918.526545 C237.86348,918.852986 237.641802,919.805953 238.584309,920.645211 L241.838973,923.54101 C242.78148,924.379515 242.78148,925.751923 241.838973,926.590052 L238.584309,929.486603 C237.641802,930.325862 237.890624,931.135375 239.136995,931.287112 L243.085721,931.766419 C244.332092,931.918532 245.026154,933.028507 244.62917,934.232988 L242.603535,940.367217 C242.205797,941.571697 242.772432,942.040839 243.862724,941.411301 L248.505512,938.727858 C249.595804,938.09832 251.06159,938.444717 251.762815,939.497084 L253.690807,942.39213 C254.391655,943.446003 255.44387,943.38802 256.027847,942.264114 L257.723228,939.00121 C258.307582,937.876551 259.706639,937.417199 260.831992,937.978964 L264.101359,939.611545 C265.227089,940.172934 266.092311,939.596108 266.02445,938.328373 L265.860831,935.286108 C265.79297,934.018373 266.730199,932.713738 267.943017,932.38805 L270.853478,931.605646 C272.067049,931.279205 272.288727,930.326238 271.34622,929.487733 L271.34622,929.487733 Z M256.85009,932.972782 L253.080063,932.972782 L253.080063,929.019345 L256.85009,929.019345 L256.85009,932.972782 L256.85009,932.972782 Z M256.85009,926.948497 L253.080063,926.948497 L253.080063,917.159032 L256.85009,917.159032 L256.85009,926.948497 L256.85009,926.948497 Z" id="icon--notiser--installningar-meny"></path>
        </g>
    </g>
</svg>