<?xml version="1.0" encoding="UTF-8"?>
<svg width="27px" height="27px" viewBox="0 0 27 27" version="1.1" xmlns="http://www.w3.org/2000/svg" xmlns:xlink="http://www.w3.org/1999/xlink">
    <!-- Generator: Sketch 50.2 (55047) - http://www.bohemiancoding.com/sketch -->
    <title>icon--plus--fragor</title>
    <desc>Created with Sketch.</desc>
    <defs></defs>
    <g id="Page-1" stroke="none" stroke-width="1" fill="none" fill-rule="evenodd">
        <g id="nyheter-frågor-campuskollen" transform="translate(-48.000000, -256.000000)" fill="#6CBE45">
            <g id="Hur-jobbar-ni" transform="translate(0.000000, 245.000000)">
                <path d="M61.0715499,11.1372842 C53.8825906,11.1372842 48.0548104,16.9584985 48.0548104,24.1372842 C48.0548104,31.317308 53.8825906,37.1372842 61.0715499,37.1372842 C68.2598894,37.1372842 74.0882895,31.317308 74.0882895,24.1372842 C74.0882895,16.958189 68.2601993,11.1372842 61.0715499,11.1372842 L61.0715499,11.1372842 Z M62.6558731,25.7192604 L62.6558731,31.9530699 L59.4878466,31.9530699 L59.4878466,25.7192604 L53.2460101,25.7192604 L53.2460101,22.5556175 L59.4878466,22.5556175 L59.4875367,16.3224271 L62.6558731,16.321808 L62.6558731,22.555308 L68.8967799,22.5549985 L68.8973997,25.7192604 L62.6558731,25.7192604 L62.6558731,25.7192604 Z" id="icon--plus--fragor"></path>
            </g>
        </g>
    </g>
</svg>