<?xml version="1.0" encoding="UTF-8"?>
<svg width="19px" height="31px" viewBox="0 0 19 31" version="1.1" xmlns="http://www.w3.org/2000/svg" xmlns:xlink="http://www.w3.org/1999/xlink">
    <!-- Generator: Sketch 50.2 (55047) - http://www.bohemiancoding.com/sketch -->
    <title>icon--telefon--felanmalan-steg2</title>
    <desc>Created with Sketch.</desc>
    <defs></defs>
    <g id="Page-1" stroke="none" stroke-width="1" fill="none" fill-rule="evenodd">
        <g id="felanmälan-steg2-campuskollen" transform="translate(-55.000000, -892.000000)" fill="#4F525A">
            <g id="Telefon" transform="translate(48.000000, 886.000000)">
                <g id="Mobile" transform="translate(7.000000, 6.000000)">
                    <path d="M15.1617917,0.148410793 L3.22337303,0.148410793 C1.49544402,0.148410793 0.081683917,1.5603528 0.081683917,3.28605969 L0.081683917,27.7597211 C0.081683917,29.485428 1.49544402,30.89737 3.22337303,30.89737 L15.1617917,30.89737 C16.8897207,30.89737 18.3034808,29.485428 18.3034808,27.7597211 L18.3034808,3.28605969 C18.3034808,1.5603528 16.8897207,0.148410793 15.1617917,0.148410793 L15.1617917,0.148410793 Z M9.19258235,29.6426242 C7.97831951,29.6426242 6.99339997,28.9404184 6.99339997,28.0737998 C6.99339997,27.2071811 7.97831951,26.5049753 9.19258235,26.5049753 C10.406531,26.5049753 11.3917647,27.2071811 11.3917647,28.0737998 C11.3917647,28.9404184 10.4068452,29.6426242 9.19258235,29.6426242 L9.19258235,29.6426242 Z M15.7901295,24.9361509 L2.59503521,24.9361509 L2.59503521,4.22766813 L15.7901295,4.22766813 L15.7901295,24.9361509 L15.7901295,24.9361509 Z" id="icon--telefon--felanmalan-steg2"></path>
                </g>
            </g>
        </g>
    </g>
</svg>