<?xml version="1.0" encoding="UTF-8"?>
<svg width="48px" height="40px" viewBox="0 0 48 40" version="1.1" xmlns="http://www.w3.org/2000/svg" xmlns:xlink="http://www.w3.org/1999/xlink">
    <!-- Generator: Sketch 50.2 (55047) - http://www.bohemiancoding.com/sketch -->
    <title>icon--right-arrow--felanmalan-steg1</title>
    <desc>Created with Sketch.</desc>
    <defs></defs>
    <g id="Page-1" stroke="none" stroke-width="1" fill="none" fill-rule="evenodd">
        <g id="felanmälan-steg1-campuskollen" transform="translate(-655.000000, -780.000000)" fill="#FA0062">
            <path d="M702.171389,800.579026 C702.212441,800.517973 702.259809,800.464289 702.28823,800.394816 C702.335599,800.275869 702.359809,800.150606 702.362967,800.024291 C702.36402,800.01587 702.36823,800.008502 702.36823,800.000081 C702.36823,799.99166 702.36402,799.986396 702.36402,799.977975 C702.360862,799.85166 702.336651,799.724292 702.28823,799.605345 C702.260862,799.537977 702.212441,799.483241 702.172441,799.422188 C702.13981,799.37482 702.120863,799.321136 702.07981,799.277978 L702.060863,799.255873 L702.05981,799.255873 L684.185145,780.330686 C683.787252,779.906477 683.119887,779.888583 682.697783,780.287529 C682.275679,780.687527 682.25568,781.352787 682.655678,781.775944 L698.873507,798.947453 L656.052627,798.947453 C655.470524,798.947453 655,799.41903 655,800.000081 C655,800.581131 655.470524,801.052708 656.052627,801.052708 L698.873507,801.052708 L682.655678,818.22527 C682.25568,818.647374 682.275679,819.313687 682.697783,819.713685 C682.90094,819.905264 683.160939,820 683.420938,820 C683.699884,820 683.978831,819.889474 684.185145,819.670528 L702.05981,800.744288 L702.060863,800.743236 L702.07981,800.723236 C702.120863,800.680078 702.13981,800.626394 702.171389,800.579026" id="icon--right-arrow--felanmalan-steg1"></path>
        </g>
    </g>
</svg>