<?xml version="1.0" encoding="UTF-8"?>
<svg width="49px" height="49px" viewBox="0 0 49 49" version="1.1" xmlns="http://www.w3.org/2000/svg" xmlns:xlink="http://www.w3.org/1999/xlink">
    <!-- Generator: Sketch 50.2 (55047) - http://www.bohemiancoding.com/sketch -->
    <title>icon--sakerhet--campusinfo</title>
    <desc>Created with Sketch.</desc>
    <defs></defs>
    <g id="Page-1" stroke="none" stroke-width="1" fill="none" fill-rule="evenodd">
        <g id="campusinfo-campuskollen" transform="translate(-106.000000, -1080.000000)" fill="#6CBE45">
            <g id="Hitta-sal" transform="translate(71.000000, 1080.000000)">
                <g id="Address" transform="translate(35.000000, 0.000000)">
                    <g id="Lifebuoy">
                        <path d="M24.0951453,0.00221734217 C10.6091309,0.181432008 -0.17723854,11.2466121 0.00220689298,24.7158137 C0.182714133,38.186606 11.2621423,48.9580436 24.747095,48.7777685 C38.2341712,48.5985539 49.0205406,37.5333738 48.8410952,24.0647024 C48.6595261,10.5933799 37.5800979,-0.177527544 24.0951453,0.00221734217 L24.0951453,0.00221734217 Z M24.1376176,3.18301255 C27.7753694,3.13423222 31.210316,4.00326429 34.2247869,5.57271816 L30.9379624,11.0440677 C28.9699026,10.0838376 26.7592198,9.54354251 24.4221819,9.54354251 C22.0840823,9.54354251 19.8733995,10.0843678 17.9053397,11.0440677 L14.6201079,5.57642971 C17.4710605,4.09128096 20.7021401,3.22808132 24.1376176,3.18301255 L24.1376176,3.18301255 Z M11.0588062,30.8981894 L5.58412784,34.1781359 C4.09812853,31.3308497 3.23328649,28.1039253 3.18762877,24.6739262 C3.13878564,21.0413828 4.00893672,17.6103233 5.58094242,14.5997291 L11.0588062,17.8828569 C10.0973397,19.8478556 9.55634892,22.0551652 9.55634892,24.3897278 C9.55634892,26.7242905 10.0973397,28.9331908 11.0588062,30.8981894 L11.0588062,30.8981894 Z M24.7056845,45.5969733 C21.0679327,45.6452234 17.6329861,44.7761914 14.6185152,43.2062073 L17.9053397,37.735388 C19.8723377,38.695618 22.0830205,39.2364434 24.4211201,39.2364434 C26.758158,39.2364434 28.9688408,38.6961483 30.9358388,37.7359182 L34.2210706,43.2035562 C31.3711798,44.6881747 28.1401002,45.5508441 24.7056845,45.5969733 L24.7056845,45.5969733 Z M24.421651,36.0551179 C17.9711717,36.0551179 12.7417708,30.832442 12.7417708,24.3902581 C12.7417708,17.9480741 17.9711717,12.7253982 24.421651,12.7253982 C30.8721303,12.7253982 36.1015313,17.9480741 36.1015313,24.3902581 C36.1015313,30.832442 30.8721303,36.0551179 24.421651,36.0551179 L24.421651,36.0551179 Z M37.7844958,30.8981894 C38.7459623,28.9326605 39.2869532,26.7248207 39.2869532,24.3902581 C39.2869532,22.0556954 38.7454314,19.8478556 37.7844958,17.8833871 L43.2591742,14.6023802 C44.7451735,17.4507269 45.6100156,20.6765908 45.6556733,24.1065899 C45.7045164,27.7401937 44.8333036,31.170723 43.2612979,34.1813173 L37.7844958,30.8981894 L37.7844958,30.8981894 Z" id="icon--sakerhet--campusinfo"></path>
                    </g>
                </g>
            </g>
        </g>
    </g>
</svg>