<?xml version="1.0" encoding="UTF-8"?>
<svg width="51px" height="56px" viewBox="0 0 51 56" version="1.1" xmlns="http://www.w3.org/2000/svg" xmlns:xlink="http://www.w3.org/1999/xlink">
    <!-- Generator: Sketch 50.2 (55047) - http://www.bohemiancoding.com/sketch -->
    <title>icon--salar--karta</title>
    <desc>Created with Sketch.</desc>
    <defs></defs>
    <g id="Page-1" stroke="none" stroke-width="1" fill="none" fill-rule="evenodd">
        <g id="Karta-steg1-campuskollen" transform="translate(-565.000000, -960.000000)" fill="#00BC9C" fill-rule="nonzero">
            <g id="Group-2" transform="translate(553.000000, 960.000000)">
                <g id="icon--salar--karta" transform="translate(12.000000, 0.000000)">
                    <path d="M48.4468444,5.83768889 L48.4468444,2.33333333 C48.4468444,1.04471111 47.4021333,0 46.1135111,0 L4.14431111,0 C2.85568889,0 1.81097778,1.04471111 1.81097778,2.33333333 L1.81097778,5.83768889 C0.794266667,6.08937778 0.0395111111,7.0056 0.0395111111,8.10008889 L0.0395111111,53.5226222 C0.0395111111,54.8112444 1.08422222,55.8559556 2.37284444,55.8559556 L19.7250667,55.8559556 C19.7381333,55.8562667 19.7508889,55.8578222 19.7642667,55.8578222 L30.6046222,55.8578222 C30.6176889,55.8578222 30.6304444,55.8559556 30.6438222,55.8559556 L47.8856,55.8559556 C49.1742222,55.8559556 50.2189333,54.8112444 50.2189333,53.5226222 L50.2189333,8.10008889 C50.2186222,7.0056 49.4638667,6.08968889 48.4468444,5.83768889 Z M7.8876,17.5591111 L7.8876,13.5831111 L14.0612889,13.5831111 L14.0612889,17.5591111 L7.8876,17.5591111 Z M22.0972889,17.5591111 L22.0972889,13.5831111 L28.2709778,13.5831111 L28.2709778,17.5591111 L22.0972889,17.5591111 Z M36.3072889,17.5591111 L36.3072889,13.5831111 L42.4809778,13.5831111 L42.4809778,17.5591111 L36.3072889,17.5591111 Z M42.4809778,27.1332444 L42.4809778,31.1095556 L36.3072889,31.1095556 L36.3072889,27.1332444 L42.4809778,27.1332444 Z M28.2709778,27.1332444 L28.2709778,31.1095556 L22.0972889,31.1095556 L22.0972889,27.1332444 L28.2709778,27.1332444 Z M14.0612889,27.1332444 L14.0612889,31.1095556 L7.8876,31.1095556 L7.8876,27.1332444 L14.0612889,27.1332444 Z M14.0612889,40.6836889 L14.0612889,44.66 L7.8876,44.66 L7.8876,40.6836889 L14.0612889,40.6836889 Z M28.2709778,40.7194667 L28.2709778,51.1911556 L22.0972889,51.1911556 L22.0972889,40.7194667 L28.2709778,40.7194667 Z M36.3072889,44.6596889 L36.3072889,40.6833778 L42.4809778,40.6833778 L42.4809778,44.6596889 L36.3072889,44.6596889 Z" id="Shape"></path>
                </g>
            </g>
        </g>
    </g>
</svg>