<?xml version="1.0" encoding="UTF-8"?>
<svg width="29px" height="26px" viewBox="0 0 29 26" version="1.1" xmlns="http://www.w3.org/2000/svg" xmlns:xlink="http://www.w3.org/1999/xlink">
    <!-- Generator: Sketch 50.2 (55047) - http://www.bohemiancoding.com/sketch -->
    <title>icon--sok-byggnad--felanmalan-steg1</title>
    <desc>Created with Sketch.</desc>
    <defs></defs>
    <g id="Page-1" stroke="none" stroke-width="1" fill="none" fill-rule="evenodd">
        <g id="felanmälan-steg1-campuskollen" transform="translate(-51.000000, -565.000000)" fill="#4F525A">
            <g id="Sök-byggnad" transform="translate(48.000000, 556.000000)">
                <g id="Home" transform="translate(3.000000, 9.000000)">
                    <path d="M27.9739141,13.1709088 L15.3697715,0.570738335 C14.7247827,-0.0966395861 13.670746,-0.0966395861 13.0263856,0.570738335 L0.422243017,13.1709088 C-0.222431589,13.8379729 0.0182217969,14.3845514 0.956644336,14.3845514 L3.58372478,14.3845514 L3.58372478,24.0610606 C3.58372478,24.7610701 3.61388499,25.328357 4.87872903,25.328357 L10.9965402,25.328357 L10.9965402,15.6239227 L17.3989885,15.6239227 L17.3989885,25.328357 L23.8215436,25.328357 C24.7860421,25.328357 24.811804,24.7610701 24.811804,24.0610606 L24.811804,14.3845514 L27.4391986,14.3845514 C28.3776211,14.3845514 28.6182745,13.8379729 27.9739141,13.1709088 L27.9739141,13.1709088 Z" id="icon--sok-byggnad--felanmalan-steg1"></path>
                </g>
            </g>
        </g>
    </g>
</svg>