<?xml version="1.0" encoding="UTF-8"?>
<svg width="48px" height="48px" viewBox="0 0 48 48" version="1.1" xmlns="http://www.w3.org/2000/svg" xmlns:xlink="http://www.w3.org/1999/xlink">
    <!-- Generator: Sketch 50.2 (55047) - http://www.bohemiancoding.com/sketch -->
    <title>icon--installningar--top-nav</title>
    <desc>Created with Sketch.</desc>
    <defs></defs>
    <g id="Page-1" stroke="none" stroke-width="1" fill="none" fill-rule="evenodd">
        <g id="nyheter-frågor-campuskollen" transform="translate(-654.000000, -64.000000)" fill="#FFFFFF" fill-rule="nonzero">
            <g id="gear" transform="translate(654.000000, 64.000000)">
                <path d="M46.8096,19.536 L42.52608,19.02144 C42.08832,17.38752 41.44704,15.84384 40.62144,14.41152 L43.28448,11.02656 C43.69152,10.50624 43.64544,9.70176 43.17504,9.23328 L38.76096,4.81728 C38.29632,4.35072 37.48992,4.3008 36.96768,4.70784 L33.57696,7.37472 C32.1504,6.54912 30.60672,5.90784 28.97664,5.47392 L28.464,1.1904 C28.38528,0.53568 27.78048,0 27.12,0 L20.87616,0 C20.21568,0 19.61088,0.53568 19.53408,1.1904 L19.01952,5.47392 C17.38752,5.90976 15.84192,6.55296 14.41536,7.37664 L11.02656,4.7136 C10.50816,4.30656 9.70176,4.35456 9.2352,4.82112 L4.8192,9.23904 C4.35456,9.70368 4.30656,10.51008 4.71552,11.03232 L7.37664,14.4192 C6.55104,15.84768 5.90976,17.39328 5.47392,19.0272 L1.19232,19.53984 C0.5376,19.61664 0,20.22144 0,20.88384 L0,27.12768 C0,27.78816 0.53568,28.38912 1.19232,28.46976 L5.47584,28.98432 C5.9136,30.61248 6.55296,32.15616 7.37856,33.58464 L4.71744,36.97536 C4.31232,37.49568 4.3584,38.30016 4.82688,38.76864 L9.2352,43.18656 C9.70176,43.6512 10.50816,43.70304 11.02656,43.296 L14.41728,40.6272 C15.84576,41.4528 17.38944,42.096 19.02144,42.52992 L19.536,46.81152 C19.61472,47.46816 20.2176,48.00192 20.87808,48.00192 L27.12192,48.00192 C27.78432,48.00192 28.3872,47.46816 28.464,46.81152 L28.97856,42.52992 C30.61248,42.09216 32.15616,41.45088 33.58272,40.6272 L36.97344,43.29024 C37.49376,43.69728 38.29824,43.64928 38.7648,43.18272 L43.17888,38.7648 C43.64736,38.30016 43.69536,37.49376 43.2864,36.9696 L40.62144,33.58272 C41.44896,32.15424 42.08832,30.61056 42.52608,28.98048 L46.80768,28.46592 C47.46432,28.3872 48,27.78816 48,27.12384 L48,20.88 C48.00192,20.21568 47.46816,19.61472 46.8096,19.536 Z M24.00192,36 C17.37408,36 12.00192,30.62784 12.00192,24 C12.00192,17.37216 17.37408,12 24.00192,12 C30.62976,12 36.00192,17.37216 36.00192,24 C36.00192,30.62784 30.63168,36 24.00192,36 Z" id="icon--installningar--top-nav"></path>
            </g>
        </g>
    </g>
</svg>