<svg viewBox="0 0 225.57 271.36" xmlns="http://www.w3.org/2000/svg"><path d="m512.81 278.3a112.33 112.33 0 0 1 -31.32 78c-.17.19-.35.37-.54.55l-3.41 3.38-77.54 76.64-77.81-76.94-2.65-2.63a6.88 6.88 0 0 1 -.54-.54 112.78 112.78 0 1 1 193.81-78.46z" fill="#6cbe45" transform="translate(-287.24 -165.51)"/><path d="m446.76 283v33.45c0 12.9-20.92 30.14-46.74 30.14s-46.73-17.24-46.73-30.14v-34.6l46.64 22.23z" fill="none" stroke="#fff" stroke-linejoin="round" stroke-width="14" transform="translate(-287.24 -165.51)"/><path d="m49.58 149.5.27-36.91 63.15-24.62" fill="none" stroke="#fff" stroke-linecap="round" stroke-linejoin="round" stroke-width="7"/><circle cx="49.51" cy="151.96" fill="#fff" r="6.01"/><path d="m336.82 305.8-6.21 38.71s6.08 5.26 11.88 0z" fill="#fff" transform="translate(-287.24 -165.51)"/><path d="m204.79 96.05-92 41.4-91.85-41.4 91.92-38.08z" fill="none" stroke="#fff" stroke-linecap="round" stroke-linejoin="round" stroke-width="14"/></svg>