<?xml version="1.0" encoding="UTF-8"?>
<svg width="49px" height="51px" viewBox="0 0 49 51" version="1.1" xmlns="http://www.w3.org/2000/svg" xmlns:xlink="http://www.w3.org/1999/xlink">
    <!-- Generator: Sketch 50.2 (55047) - http://www.bohemiancoding.com/sketch -->
    <title>icon--storningar--campusinfo</title>
    <desc>Created with Sketch.</desc>
    <defs></defs>
    <g id="Page-1" stroke="none" stroke-width="1" fill="none" fill-rule="evenodd">
        <g id="campusinfo-campuskollen" transform="translate(-434.000000, -1079.000000)" fill="#6CBE45">
            <g id="Megaphone" transform="translate(434.000000, 1079.000000)">
                <path d="M44.2947447,17.0799661 C39.8723634,6.80465403 32.7567867,-1.02189738 29.155992,0.440107552 C23.0418461,2.92177866 32.7981173,14.8409398 2.77473983,27.0295205 C0.181519816,28.0820971 -0.475861178,32.2957504 0.609348058,34.8147944 C1.6923232,37.3332806 5.24005818,39.8406107 7.83439524,38.7880341 C8.28288882,38.6061899 9.93108874,38.0768336 9.93108874,38.0768336 C11.7831494,40.5590625 13.721781,39.0870171 14.4093222,40.6644875 C15.235377,42.5599064 17.0327025,46.6804064 17.642609,48.0821685 C18.2547497,49.4828149 19.6398855,50.7802676 20.6457846,50.3987295 C21.6483325,50.0171914 25.0636976,48.7191809 26.3706403,48.2227351 C27.6764659,47.7262893 27.9881215,46.5638253 27.5893364,45.6462373 C27.1587156,44.6578082 25.3932259,44.36775 24.8905556,43.2142108 C24.3867683,42.0606716 22.741361,38.363545 22.2682925,37.1982919 C21.6248745,35.6135701 22.9915791,34.3244845 24.9771266,34.1180969 C38.6424969,32.695696 41.1971788,41.1246761 45.8496713,39.2348353 C49.4487904,37.7728303 48.7160089,27.355836 44.2947447,17.0799661 L44.2947447,17.0799661 Z M42.7554566,33.7493883 C41.9556524,34.0740303 36.5776392,29.8375071 33.1404916,21.8491924 C29.7044611,13.8625512 30.136199,6.56089358 30.9348862,6.23680931 C31.7335734,5.91216723 36.9792168,11.0227698 40.4158058,19.009411 C43.8518363,26.9954944 43.5547023,33.4247462 42.7554566,33.7493883 L42.7554566,33.7493883 Z" id="icon--storningar--campusinfo"></path>
            </g>
        </g>
    </g>
</svg>