<?xml version="1.0" encoding="UTF-8"?>
<svg width="73px" height="56px" viewBox="0 0 73 56" version="1.1" xmlns="http://www.w3.org/2000/svg" xmlns:xlink="http://www.w3.org/1999/xlink">
    <!-- Generator: Sketch 50.2 (55047) - http://www.bohemiancoding.com/sketch -->
    <title>icon--wifi--karta</title>
    <desc>Created with Sketch.</desc>
    <defs></defs>
    <g id="Page-1" stroke="none" stroke-width="1" fill="none" fill-rule="evenodd">
        <g id="Karta-steg1-campuskollen" transform="translate(-338.000000, -1135.000000)" fill="#0096BF" fill-rule="nonzero">
            <g id="Group" transform="translate(338.000000, 1135.000000)">
                <g id="icon--wifi--karta">
                    <path d="M71.96,14.84 C62.72,5.6 50.4,0 36.4,0 C22.4,0 9.8,5.6 0.84,14.84 C0.28,15.4 0,15.96 0,16.8 C0,17.64 0.28,18.2 0.84,18.76 L4.76,22.68 C5.88,23.8 7.56,23.8 8.68,22.68 C15.68,15.68 25.48,11.2 36.4,11.2 C47.32,11.2 57.12,15.68 64.12,22.68 C65.24,23.8 66.92,23.8 68.04,22.68 L71.96,18.76 C72.52,18.2 72.8,17.64 72.8,16.8 C72.8,15.96 72.52,15.12 71.96,14.84 Z" id="Shape"></path>
                    <path d="M36.4,22.4 C28.56,22.4 21.84,25.48 16.8,30.52 C15.68,31.64 15.68,33.32 16.8,34.44 L20.72,38.36 C21.84,39.48 23.52,39.48 24.64,38.36 C27.72,35.28 31.92,33.6 36.4,33.6 C40.88,33.6 45.08,35.56 48.16,38.36 C49.28,39.48 50.96,39.48 52.08,38.36 L56,34.44 C57.12,33.32 57.12,31.64 56,30.52 C50.96,25.48 44.24,22.4 36.4,22.4 Z" id="Shape"></path>
                    <circle id="Oval" cx="36.4" cy="50.4" r="5.6"></circle>
                </g>
            </g>
        </g>
    </g>
</svg>